<svg width="13" height="13" viewBox="0 0 13 13" fill="none" xmlns="http://www.w3.org/2000/svg">
<path d="M10.4 0.700256H2.6C1.16406 0.700256 0 1.77477 0 3.10026V10.3003C0 11.6257 1.16406 12.7003 2.6 12.7003H10.4C11.8359 12.7003 13 11.6257 13 10.3003V3.10026C13 1.77477 11.8359 0.700256 10.4 0.700256Z" fill="white"/>
<path d="M2.6001 5.20023C2.61025 4.9471 2.70674 4.73617 2.88955 4.56742C3.07236 4.39867 3.30088 4.3096 3.5751 4.30023H9.4251C9.69933 4.3096 9.92781 4.39867 10.1107 4.56742C10.2934 4.73617 10.39 4.9471 10.4001 5.20023V8.80023C10.39 9.05337 10.2934 9.26427 10.1107 9.43305C9.92781 9.60177 9.69933 9.69087 9.4251 9.70023H3.5751C3.30088 9.69087 3.07236 9.60177 2.88955 9.43305C2.70674 9.26427 2.61025 9.05337 2.6001 8.80023V5.20023ZM3.33135 5.20023V5.5096L5.9669 7.50651C6.1294 7.61895 6.30713 7.67523 6.5001 7.67523C6.69308 7.67523 6.87586 7.61895 7.04857 7.50651L9.66885 5.5096V5.18617C9.65871 5.05492 9.57746 4.97992 9.4251 4.96117H3.5751C3.42275 4.97992 3.3415 5.05492 3.33135 5.18617V5.20023ZM3.33135 6.38148V8.80023C3.3415 8.94087 3.42275 9.01587 3.5751 9.02523H9.4251C9.57746 9.01587 9.65871 8.94087 9.66885 8.80023V6.38148L7.50558 8.02677C7.20086 8.24241 6.86572 8.35023 6.5001 8.35023C6.13447 8.35023 5.79424 8.24241 5.4794 8.02677L3.33135 6.38148Z" fill="url(#paint0_linear_71_478)"/>
<defs>
<linearGradient id="paint0_linear_71_478" x1="6.50007" y1="9.70017" x2="6.50007" y2="3.69996" gradientUnits="userSpaceOnUse">
<stop stop-color="#21171F"/>
<stop offset="1" stop-color="#3E4049"/>
</linearGradient>
</defs>
</svg>
