<svg width="68" height="28" viewBox="0 0 68 28" fill="none" xmlns="http://www.w3.org/2000/svg">
<g clip-path="url(#clip0_71_344)">
<path fill-rule="evenodd" clip-rule="evenodd" d="M11.6951 11.9402L15.2964 12.3242C15.4867 12.3441 15.6248 12.5117 15.6045 12.6984C15.5958 12.779 15.5584 12.8502 15.5041 12.9035C15.3287 13.0772 15.1587 13.2419 14.9945 13.4006C13.8972 14.4623 13.0703 15.2628 12.9736 16.6573C12.9223 17.3993 13.3423 18.0851 13.7852 18.8075C14.4512 19.8948 15.1629 21.0566 14.6918 22.7362C14.4632 23.5515 14.0593 24.2898 13.536 24.9687C13.0218 25.6358 12.3881 26.2492 11.6906 26.8248C11.5757 26.9192 11.4169 26.9286 11.2946 26.859L9.39941 25.7859L9.88294 25.275L11.4298 26.1512C12.0132 25.6545 12.5436 25.1273 12.9816 24.559C13.4563 23.9427 13.8209 23.2801 14.0237 22.5585C14.4164 21.1583 13.7831 20.1247 13.1905 19.1574C12.69 18.341 12.2152 17.5656 12.2816 16.6129C12.3956 14.965 13.3 14.0868 14.5006 12.925L11.2021 12.5732L11.6951 11.9402Z" fill="#F48C0D"/>
<path fill-rule="evenodd" clip-rule="evenodd" d="M2.8361 10.2448L9.60974 10.9672C8.21306 12.3519 7.09836 13.1992 6.97769 14.9395C6.84041 16.9184 9.46376 18.258 8.70779 20.9517C8.27649 22.4894 7.17216 23.7524 5.81818 24.8699L0 21.5749C1.03135 20.9159 2.06436 19.7566 2.21033 18.5143C2.41436 16.7801 0.470679 15.1017 0.958778 13.423C1.28929 12.2839 1.91009 11.112 2.8361 10.2448Z" fill="#F48C0D"/>
<path fill-rule="evenodd" clip-rule="evenodd" d="M6.5084 8.55736L14.194 9.37255C14.3843 9.39249 14.5224 9.5601 14.5021 9.7468C14.4921 9.83914 14.4452 9.91889 14.3776 9.97338L13.7606 10.4847C12.1039 11.8536 11.0916 12.6395 10.443 14.6209C10.0843 15.7168 10.4422 16.7081 10.8428 17.8166C11.3188 19.1337 11.8501 20.6047 11.4462 22.6463C11.2334 23.7203 10.7391 24.6677 10.0445 25.5386C9.36022 26.3957 8.48687 27.1751 7.49992 27.9284C7.37635 28.0224 7.20881 28.022 7.08691 27.9382L1.29442 24.0318C1.13103 23.9342 1.0796 23.7247 1.17913 23.5645C1.2094 23.516 1.25004 23.4774 1.29649 23.4502C2.04294 23.001 3.01167 22.1025 3.61256 21.3707C4.12181 20.7504 4.51038 20.06 4.66257 19.3547C4.87572 18.3678 4.49172 17.3463 4.11144 16.3339C3.64408 15.0903 3.18086 13.8578 3.68306 12.5658C3.99906 11.7539 4.42454 10.9285 4.95576 10.1577C5.44012 9.45476 5.58071 9.20903 6.24298 8.64074C6.31929 8.57528 6.41588 8.54801 6.5084 8.55736ZM13.3169 9.96402L6.58716 9.25014C6.02193 9.7533 5.9585 9.91928 5.53261 10.538C5.03207 11.2645 4.63105 12.0423 4.3333 12.8079C3.92359 13.8618 4.34201 14.9756 4.76417 16.0992C5.17887 17.2028 5.59732 18.3161 5.34267 19.4954C5.16643 20.3122 4.72685 21.0986 4.15374 21.7966C3.62583 22.4401 2.77778 23.2781 2.12256 23.7308L7.26187 27.2455C8.13439 26.5661 8.90117 25.8693 9.49918 25.1204C10.1282 24.3317 10.5749 23.479 10.7653 22.5186C11.1339 20.6572 10.6354 19.2786 10.1892 18.0436C9.74755 16.822 9.3532 15.7294 9.78366 14.4134C10.4924 12.2482 11.5768 11.4028 13.3156 9.96649L13.3169 9.96402Z" fill="#F48C0D"/>
<path fill-rule="evenodd" clip-rule="evenodd" d="M2.65262 11.4101C2.53858 11.3975 2.45647 11.2958 2.46933 11.1839C2.48218 11.0721 2.58585 10.9916 2.6999 11.0042L7.88773 11.5903C8.00177 11.6029 8.08387 11.7046 8.07105 11.8165C8.05817 11.9284 7.9545 12.0089 7.84046 11.9963L2.65262 11.4101ZM1.9522 13.728C1.83816 13.7154 1.75605 13.6137 1.7689 13.5018C1.78176 13.3899 1.88543 13.3094 1.99947 13.322L4.8024 13.6389C4.91645 13.6515 4.99855 13.7532 4.9857 13.865C4.97284 13.9769 4.86917 14.0575 4.75513 14.0449L1.9522 13.728ZM2.04426 12.5438C1.93022 12.5312 1.84811 12.4295 1.86097 12.3176C1.87382 12.2058 1.9775 12.1252 2.09154 12.1378L6.01829 12.5817C6.13233 12.5943 6.21443 12.696 6.20161 12.8078C6.18873 12.9197 6.08506 13.0002 5.97102 12.9876L2.04426 12.5438Z" fill="#F48C0D"/>
<path fill-rule="evenodd" clip-rule="evenodd" d="M3.1077 18.888C2.94555 19.8639 2.09294 20.7983 1.46924 21.3792C1.86444 21.6294 2.15058 21.8104 2.54578 22.061C3.47222 21.3959 4.29 20.518 4.30161 19.3152L3.1077 18.888ZM4.35801 17.8052L5.6411 18.0452C5.80034 18.6294 5.98032 19.1504 6.0064 19.7459C6.06242 21.0338 5.17413 22.3331 4.2025 23.0303C3.80729 22.7797 3.41167 22.5296 3.01647 22.279C3.66713 21.6729 4.56701 20.6824 4.67234 19.6609C4.73869 19.0129 4.57697 18.4149 4.35801 17.8052ZM5.43953 16.5051C5.60833 17.8865 6.66868 18.6724 6.33526 20.4261C6.14369 21.4349 5.32134 22.4458 4.67069 23.0519C5.06589 23.3024 5.33461 23.4725 5.72983 23.7227C6.70184 23.0255 7.28246 22.041 7.6573 20.8865C8.23954 19.0935 6.88974 18.0293 6.60152 16.7199C6.16481 16.6393 5.8762 16.5856 5.43953 16.5051Z" fill="#F48C0D"/>
<path d="M9.75392 7.77777C11.801 7.77777 13.4605 6.03666 13.4605 3.88889C13.4605 1.74111 11.801 0 9.75392 0C7.70685 0 6.04736 1.74111 6.04736 3.88889C6.04736 6.03666 7.70685 7.77777 9.75392 7.77777Z" fill="#F48C0D"/>
<path d="M12.8475 3.5C12.8475 5.19788 11.4657 6.58 9.75409 6.58C8.04244 6.58 6.66064 5.19788 6.66064 3.5C6.66064 1.80211 8.04244 0.419998 9.75409 0.419998C11.4657 0.419998 12.8475 1.80211 12.8475 3.5Z" fill="#F48C0D" stroke="#F48C0D" stroke-width="1.5"/>
<path d="M18.1436 25.2V13.1018H21.7732V14.8758C22.1819 14.2188 22.7297 13.7178 23.4163 13.3728C24.103 13.0278 24.8715 12.8554 25.7217 12.8554C27.1441 12.8554 28.2068 13.2742 28.9098 14.112C29.6129 14.9334 29.9644 16.2064 29.9644 17.9312V25.2H26.2612V18.1037C26.2612 17.2659 26.1059 16.6663 25.7952 16.305C25.4846 15.9271 25.0268 15.7382 24.4219 15.7382C23.6371 15.7382 23.0076 15.9846 22.5335 16.4774C22.0757 16.9702 21.8468 17.6273 21.8468 18.4486V25.2H18.1436ZM36.1653 25.2L30.917 13.1018H34.8164L37.833 20.7894L40.9476 13.1018H44.6017L39.2799 25.2H36.1653ZM49.5413 25.471C48.6421 25.471 47.8491 25.2986 47.1624 24.9536C46.4758 24.6086 45.9281 24.1405 45.5193 23.5491C45.1269 22.9578 44.9307 22.2925 44.9307 21.5533C44.9307 20.6826 45.1596 19.9846 45.6174 19.4589C46.0752 18.9332 46.8191 18.5636 47.8491 18.3501C48.8792 18.1201 50.2444 18.0051 51.9447 18.0051H52.8276V17.5862C52.8276 16.8634 52.6641 16.3542 52.3371 16.0586C52.0102 15.7465 51.4542 15.5904 50.6695 15.5904C50.0155 15.5904 49.3206 15.6972 48.5849 15.9107C47.8655 16.1078 47.1461 16.4118 46.4267 16.8224L45.4212 14.3338C45.8463 14.0545 46.3613 13.7999 46.9662 13.5699C47.5876 13.3399 48.2334 13.1674 48.9037 13.0525C49.574 12.921 50.2117 12.8554 50.8166 12.8554C52.6805 12.8554 54.0702 13.2825 54.9858 14.1366C55.9014 14.9744 56.359 16.2803 56.359 18.0544V25.2H52.9012V23.3766C52.6559 24.0173 52.239 24.5265 51.6504 24.9043C51.0782 25.2822 50.3752 25.471 49.5413 25.471ZM50.3752 22.9824C51.0619 22.9824 51.6423 22.7442 52.1164 22.2678C52.5906 21.7914 52.8276 21.1754 52.8276 20.4198V19.927H51.9693C50.7104 19.927 49.8193 20.042 49.2961 20.272C48.7729 20.4855 48.5113 20.8634 48.5113 21.4054C48.5113 21.8654 48.6666 22.2432 48.9773 22.5389C49.3043 22.8346 49.7702 22.9824 50.3752 22.9824ZM59.1219 25.2V13.1018H62.7515V15.1962C63.3234 13.7834 64.5496 13.0032 66.4302 12.8554L67.5093 12.7814L67.73 15.9107L65.6455 16.1325C63.8139 16.3132 62.8987 17.2495 62.8987 18.9414V25.2H59.1219Z" fill="white"/>
</g>
<defs>
<clipPath id="clip0_71_344">
<rect width="68" height="28" fill="white"/>
</clipPath>
</defs>
</svg>
